<svg width="56" height="56" viewBox="0 0 56 56" fill="none" xmlns="http://www.w3.org/2000/svg">
<rect width="56" height="56" rx="28" fill="black" fill-opacity="0.25"/>
<path fill-rule="evenodd" clip-rule="evenodd" d="M19.3333 18.6667C18.2287 18.6667 17.3333 19.5621 17.3333 20.6667V35.3334C17.3333 36.4379 18.2287 37.3334 19.3333 37.3334H23.3333C24.4378 37.3334 25.3333 36.4379 25.3333 35.3334V20.6667C25.3333 19.5621 24.4378 18.6667 23.3333 18.6667H19.3333ZM32.6666 18.6667C31.562 18.6667 30.6666 19.5621 30.6666 20.6667V35.3334C30.6666 36.4379 31.562 37.3334 32.6666 37.3334H36.6666C37.7712 37.3334 38.6666 36.4379 38.6666 35.3334V20.6667C38.6666 19.5621 37.7712 18.6667 36.6666 18.6667H32.6666Z" fill="white"/>
</svg>
