<svg width="16" height="16" viewBox="0 0 16 16" fill="none" xmlns="http://www.w3.org/2000/svg">
<g clip-path="url(#clip0_130_4792)">
<path d="M8 15.5C12.1421 15.5 15.5 12.1421 15.5 8C15.5 3.85786 12.1421 0.5 8 0.5C3.85786 0.5 0.5 3.85786 0.5 8C0.5 12.1421 3.85786 15.5 8 15.5Z" fill="#5E9E53"/>
<path d="M6.93496 10.685C6.78496 10.685 6.64246 10.625 6.53746 10.52L4.41496 8.39745C4.19746 8.17995 4.19746 7.81995 4.41496 7.60245C4.63246 7.38495 4.99246 7.38495 5.20996 7.60245L6.93496 9.32745L10.79 5.47245C11.0075 5.25495 11.3675 5.25495 11.585 5.47245C11.8025 5.68995 11.8025 6.04995 11.585 6.26745L7.33246 10.52C7.22746 10.625 7.08496 10.685 6.93496 10.685Z" fill="white"/>
</g>
<defs>
<clipPath id="clip0_130_4792">
<rect width="16" height="16" fill="white"/>
</clipPath>
</defs>
</svg>
