<svg width="32" height="32" viewBox="0 0 32 32" fill="none" xmlns="http://www.w3.org/2000/svg">
<g clip-path="url(#clip0_116_3952)">
<path d="M24 0H8C3.58172 0 0 3.58172 0 8V24C0 28.4183 3.58172 32 8 32H24C28.4183 32 32 28.4183 32 24V8C32 3.58172 28.4183 0 24 0Z" fill="#EBECFE"/>
<mask id="mask0_116_3952" style="mask-type:luminance" maskUnits="userSpaceOnUse" x="6" y="6" width="20" height="20">
<path d="M26 6H6V26H26V6Z" fill="white"/>
</mask>
<g mask="url(#mask0_116_3952)">
<path fill-rule="evenodd" clip-rule="evenodd" d="M16.0003 8.29175C11.7431 8.29175 8.29199 11.7429 8.29199 16.0001C8.29199 20.2573 11.7431 23.7084 16.0003 23.7084C20.2575 23.7084 23.7086 20.2573 23.7086 16.0001C23.7086 11.7429 20.2575 8.29175 16.0003 8.29175ZM7.04199 16.0001C7.04199 11.0525 11.0527 7.04175 16.0003 7.04175C20.9478 7.04175 24.9586 11.0525 24.9586 16.0001C24.9586 20.9476 20.9478 24.9584 16.0003 24.9584C11.0527 24.9584 7.04199 20.9476 7.04199 16.0001ZM12.9982 18.9612C13.2037 18.6839 13.5952 18.6258 13.8725 18.8313C14.4794 19.2812 15.212 19.5418 16.0003 19.5418C16.7885 19.5418 17.5212 19.2812 18.1281 18.8313C18.4054 18.6258 18.7968 18.6839 19.0024 18.9612C19.2079 19.2386 19.1498 19.63 18.8725 19.8355C18.0621 20.4362 17.0711 20.7918 16.0003 20.7918C14.9295 20.7918 13.9384 20.4362 13.1281 19.8355C12.8508 19.63 12.7926 19.2386 12.9982 18.9612Z" fill="#3640F5"/>
<path d="M19.3337 14.75C19.3337 15.4403 18.9606 16 18.5004 16C18.0401 16 17.667 15.4403 17.667 14.75C17.667 14.0596 18.0401 13.5 18.5004 13.5C18.9606 13.5 19.3337 14.0596 19.3337 14.75Z" fill="#3640F5"/>
<path d="M14.3337 14.75C14.3337 15.4403 13.9606 16 13.5004 16C13.0401 16 12.667 15.4403 12.667 14.75C12.667 14.0596 13.0401 13.5 13.5004 13.5C13.9606 13.5 14.3337 14.0596 14.3337 14.75Z" fill="#3640F5"/>
</g>
</g>
<defs>
<clipPath id="clip0_116_3952">
<rect width="32" height="32" fill="white"/>
</clipPath>
</defs>
</svg>
