<svg width="21" height="20" viewBox="0 0 21 20" fill="none" xmlns="http://www.w3.org/2000/svg">
<path d="M15.5002 13.9584C15.3669 13.9584 15.2419 13.9167 15.1252 13.8334C14.8502 13.625 14.7919 13.2334 15.0002 12.9584C16.0502 11.5584 16.2752 9.70002 15.6002 8.09169C15.4669 7.77502 15.6169 7.40835 15.9336 7.27502C16.2502 7.14169 16.6169 7.29169 16.7502 7.60835C17.6002 9.62502 17.3086 11.9667 16.0002 13.7167C15.8752 13.875 15.6919 13.9584 15.5002 13.9584Z" fill="#1F2329"/>
<path d="M17.0251 16.0417C16.8918 16.0417 16.7668 16 16.6501 15.9167C16.3751 15.7084 16.3168 15.3167 16.5251 15.0417C18.3085 12.6667 18.7001 9.48338 17.5501 6.74171C17.4168 6.42504 17.5668 6.05838 17.8835 5.92504C18.2001 5.79171 18.5668 5.94171 18.7001 6.25838C20.0251 9.40838 19.5751 13.0584 17.5251 15.7917C17.4085 15.9584 17.2168 16.0417 17.0251 16.0417Z" fill="#1F2329"/>
<path d="M12.2002 10.7999C12.7252 10.2749 13.6252 10.6499 13.6252 11.3916V13.8333C13.6252 15.2666 13.1086 16.3416 12.1836 16.8583C11.8086 17.0666 11.3919 17.1666 10.9586 17.1666C10.2919 17.1666 9.57523 16.9416 8.8419 16.4833L8.30856 16.1499C7.85856 15.8666 7.78356 15.2333 8.15856 14.8583L12.2002 10.7999Z" fill="#1F2329"/>
<path d="M18.6415 1.85828C18.3915 1.60828 17.9832 1.60828 17.7332 1.85828L13.6082 5.98328C13.5582 4.64994 13.0582 3.64994 12.1748 3.15828C11.2415 2.64161 10.0498 2.77494 8.83317 3.53328L6.40817 5.04994C6.2415 5.14994 6.04984 5.20828 5.85817 5.20828H5.08317H4.6665C2.64984 5.20828 1.5415 6.31661 1.5415 8.33328V11.6666C1.5415 13.6833 2.64984 14.7916 4.6665 14.7916H4.79984L2.34984 17.2416C2.09984 17.4916 2.09984 17.8999 2.34984 18.1499C2.48317 18.2666 2.6415 18.3333 2.80817 18.3333C2.97484 18.3333 3.13317 18.2666 3.25817 18.1416L18.6415 2.75828C18.8998 2.50828 18.8998 2.10828 18.6415 1.85828Z" fill="#292D32"/>
</svg>
