<svg width="24" height="20" viewBox="0 0 24 20" fill="none" xmlns="http://www.w3.org/2000/svg">
<g clip-path="url(#clip0_113_3907)">
<path fill-rule="evenodd" clip-rule="evenodd" d="M8.75016 3.77075C7.10481 3.77075 5.771 5.10457 5.771 6.74992C5.771 8.39527 7.10481 9.72909 8.75016 9.72909C10.3955 9.72909 11.7293 8.39527 11.7293 6.74992C11.7293 5.10457 10.3955 3.77075 8.75016 3.77075ZM7.396 6.74992C7.396 6.00204 8.00228 5.39576 8.75016 5.39576C9.49805 5.39576 10.1043 6.00204 10.1043 6.74992C10.1043 7.49781 9.49805 8.10409 8.75016 8.10409C8.00228 8.10409 7.396 7.49781 7.396 6.74992Z" fill="#FF8000"/>
<path fill-rule="evenodd" clip-rule="evenodd" d="M8.75012 10.2708C7.45472 10.2708 6.24178 10.5316 5.32263 10.9912C4.45208 11.4265 3.60429 12.1782 3.60429 13.25L3.60415 13.3177C3.60249 13.8706 3.59969 14.8015 4.48204 15.4402C4.89149 15.7366 5.43176 15.9257 6.10104 16.0461C6.77651 16.1676 7.6421 16.2292 8.75012 16.2292C9.85814 16.2292 10.7237 16.1676 11.3992 16.0461C12.0684 15.9257 12.6087 15.7366 13.0182 15.4402C13.9005 14.8015 13.8977 13.8706 13.8961 13.3177L13.8959 13.25C13.8959 12.1782 13.0481 11.4265 12.1776 10.9912C11.2584 10.5316 10.0455 10.2708 8.75012 10.2708ZM5.22929 13.25C5.22929 13.1253 5.35155 12.7936 6.04935 12.4447C6.69856 12.1201 7.65229 11.8958 8.75012 11.8958C9.84795 11.8958 10.8016 12.1201 11.4509 12.4447C12.1487 12.7936 12.2709 13.1253 12.2709 13.25C12.2709 13.9048 12.2292 14.0053 12.0653 14.1239C11.9331 14.2196 11.6609 14.3479 11.1114 14.4468C10.5681 14.5445 9.80877 14.6042 8.75012 14.6042C7.69148 14.6042 6.93207 14.5445 6.38879 14.4468C5.83932 14.3479 5.56709 14.2196 5.43487 14.1239C5.27098 14.0053 5.22929 13.9048 5.22929 13.25Z" fill="#FF8000"/>
<path d="M19.5833 10.8125C20.032 10.8125 20.3958 10.4487 20.3958 9.99999C20.3958 9.55127 20.032 9.1875 19.5833 9.1875H15.25C14.8012 9.1875 14.4375 9.55127 14.4375 9.99999C14.4375 10.4487 14.8012 10.8125 15.25 10.8125H19.5833Z" fill="#FF8000"/>
<path d="M20.3957 6.75C20.3957 7.19873 20.0319 7.5625 19.5832 7.5625H14.1665C13.7178 7.5625 13.354 7.19873 13.354 6.75C13.354 6.30127 13.7178 5.9375 14.1665 5.9375H19.5832C20.0319 5.9375 20.3957 6.30127 20.3957 6.75Z" fill="#FF8000"/>
<path d="M19.5835 14.0625C20.0322 14.0625 20.396 13.6987 20.396 13.25C20.396 12.8013 20.0322 12.4375 19.5835 12.4375H16.3335C15.8848 12.4375 15.521 12.8013 15.521 13.25C15.521 13.6987 15.8848 14.0625 16.3335 14.0625H19.5835Z" fill="#FF8000"/>
<path fill-rule="evenodd" clip-rule="evenodd" d="M9.77206 0.520752H14.2277C16.2186 0.520735 17.7955 0.520722 19.0297 0.686648C20.2998 0.857412 21.3278 1.21721 22.1385 2.02793C22.9493 2.83866 23.3091 3.86669 23.4798 5.13681C23.6457 6.37095 23.6457 7.94788 23.6457 9.93876V10.061C23.6457 12.0519 23.6457 13.6289 23.4798 14.863C23.3091 16.1331 22.9493 17.1612 22.1385 17.9719C21.3278 18.7826 20.2998 19.1424 19.0297 19.3132C17.7955 19.4791 16.2186 19.4791 14.2277 19.4791H9.77206C7.78118 19.4791 6.20421 19.4791 4.97007 19.3132C3.69994 19.1424 2.67192 18.7826 1.86119 17.9719C1.05046 17.1612 0.690665 16.1331 0.519901 14.863C0.353974 13.6289 0.353988 12.0519 0.354004 10.061V9.9388C0.353988 7.9479 0.353974 6.37096 0.519901 5.13681C0.690665 3.86669 1.05046 2.83866 1.86119 2.02793C2.67192 1.21721 3.69994 0.857412 4.97007 0.686648C6.20421 0.520722 7.78116 0.520735 9.77206 0.520752ZM5.18659 2.29716C4.09666 2.4437 3.46871 2.71851 3.01024 3.17698C2.55176 3.63546 2.27695 4.26341 2.13041 5.35334C1.98073 6.46664 1.97901 7.9342 1.97901 9.99991C1.97901 12.0656 1.98073 13.5332 2.13041 14.6465C2.27695 15.7364 2.55176 16.3644 3.01024 16.8229C3.46871 17.2813 4.09666 17.5561 5.18659 17.7027C6.2999 17.8524 7.76745 17.8541 9.83317 17.8541H14.1665C16.2323 17.8541 17.6998 17.8524 18.8131 17.7027C19.9031 17.5561 20.531 17.2813 20.9895 16.8229C21.448 16.3644 21.7228 15.7364 21.8693 14.6465C22.019 13.5332 22.0207 12.0656 22.0207 9.99991C22.0207 7.9342 22.019 6.46664 21.8693 5.35334C21.7228 4.26341 21.448 3.63546 20.9895 3.17698C20.531 2.71851 19.9031 2.4437 18.8131 2.29716C17.6998 2.14748 16.2323 2.14575 14.1665 2.14575H9.83318C7.76745 2.14575 6.2999 2.14748 5.18659 2.29716Z" fill="#FF8000"/>
</g>
<defs>
<clipPath id="clip0_113_3907">
<rect width="24" height="20" fill="white"/>
</clipPath>
</defs>
</svg>
