<svg width="24" height="20" viewBox="0 0 24 20" fill="none" xmlns="http://www.w3.org/2000/svg">
<path fill-rule="evenodd" clip-rule="evenodd" d="M8.75033 3.77075C7.10498 3.77075 5.77116 5.10457 5.77116 6.74992C5.77116 8.39527 7.10498 9.72909 8.75033 9.72909C10.3957 9.72909 11.7295 8.39527 11.7295 6.74992C11.7295 5.10457 10.3957 3.77075 8.75033 3.77075ZM7.39616 6.74992C7.39616 6.00203 8.00244 5.39575 8.75033 5.39575C9.49821 5.39575 10.1045 6.00203 10.1045 6.74992C10.1045 7.49781 9.49821 8.10409 8.75033 8.10409C8.00244 8.10409 7.39616 7.49781 7.39616 6.74992Z" fill="#A8B1BD"/>
<path fill-rule="evenodd" clip-rule="evenodd" d="M8.75033 10.2708C7.45492 10.2708 6.24199 10.5316 5.32284 10.9911C4.45228 11.4264 3.60449 12.1781 3.60449 13.2499L3.60436 13.3176C3.60269 13.8705 3.59989 14.8015 4.48224 15.4401C4.89169 15.7365 5.43196 15.9256 6.10124 16.046C6.77671 16.1675 7.64231 16.2291 8.75033 16.2291C9.85835 16.2291 10.7239 16.1675 11.3994 16.046C12.0687 15.9256 12.609 15.7365 13.0184 15.4401C13.9008 14.8015 13.898 13.8705 13.8963 13.3176L13.8962 13.2499C13.8962 12.1781 13.0484 11.4264 12.1778 10.9911C11.2587 10.5316 10.0457 10.2708 8.75033 10.2708ZM5.22949 13.2499C5.22949 13.1252 5.35175 12.7935 6.04956 12.4446C6.69877 12.12 7.6525 11.8958 8.75033 11.8958C9.84816 11.8958 10.8019 12.12 11.4511 12.4446C12.1489 12.7935 12.2712 13.1252 12.2712 13.2499C12.2712 13.9048 12.2295 14.0052 12.0656 14.1238C11.9334 14.2195 11.6611 14.3478 11.1117 14.4467C10.5684 14.5444 9.80897 14.6041 8.75033 14.6041C7.69168 14.6041 6.93227 14.5444 6.38899 14.4467C5.83952 14.3478 5.5673 14.2195 5.43508 14.1238C5.27119 14.0052 5.22949 13.9048 5.22949 13.2499Z" fill="#A8B1BD"/>
<path d="M19.5837 10.8124C20.0324 10.8124 20.3962 10.4487 20.3962 9.99992C20.3962 9.55119 20.0324 9.18742 19.5837 9.18742H15.2503C14.8016 9.18742 14.4378 9.55119 14.4378 9.99992C14.4378 10.4487 14.8016 10.8124 15.2503 10.8124H19.5837Z" fill="#A8B1BD"/>
<path d="M20.3962 6.74992C20.3962 7.19865 20.0324 7.56242 19.5837 7.56242H14.167C13.7183 7.56242 13.3545 7.19865 13.3545 6.74992C13.3545 6.30119 13.7183 5.93742 14.167 5.93742H19.5837C20.0324 5.93742 20.3962 6.30119 20.3962 6.74992Z" fill="#A8B1BD"/>
<path d="M19.5837 14.0624C20.0324 14.0624 20.3962 13.6987 20.3962 13.2499C20.3962 12.8012 20.0324 12.4374 19.5837 12.4374H16.3337C15.8849 12.4374 15.5212 12.8012 15.5212 13.2499C15.5212 13.6987 15.8849 14.0624 16.3337 14.0624H19.5837Z" fill="#A8B1BD"/>
<path fill-rule="evenodd" clip-rule="evenodd" d="M9.77254 0.520752H14.2281C16.219 0.520736 17.796 0.520722 19.0301 0.686649C20.3002 0.857413 21.3283 1.21721 22.139 2.02793C22.9497 2.83866 23.3095 3.86669 23.4803 5.13681C23.6462 6.37095 23.6462 7.94787 23.6462 9.93876V10.061C23.6462 12.0519 23.6462 13.6289 23.4803 14.863C23.3095 16.1332 22.9497 17.1612 22.139 17.9719C21.3283 18.7826 20.3002 19.1424 19.0301 19.3132C17.796 19.4791 16.219 19.4791 14.2282 19.4791H9.77255C7.78166 19.4791 6.20469 19.4791 4.97055 19.3132C3.70043 19.1424 2.6724 18.7826 1.86167 17.9719C1.05095 17.1612 0.691153 16.1332 0.520389 14.863C0.354463 13.6289 0.354476 12.052 0.354493 10.0611V9.9388C0.354476 7.9479 0.354463 6.37096 0.520389 5.13681C0.691153 3.86669 1.05095 2.83866 1.86167 2.02793C2.6724 1.21721 3.70043 0.857413 4.97055 0.686649C6.2047 0.520722 7.78164 0.520736 9.77254 0.520752ZM5.18708 2.29716C4.09715 2.4437 3.4692 2.7185 3.01072 3.17698C2.55224 3.63546 2.27744 4.26341 2.1309 5.35334C1.98122 6.46664 1.97949 7.9342 1.97949 9.99992C1.97949 12.0656 1.98122 13.5332 2.1309 14.6465C2.27744 15.7364 2.55224 16.3644 3.01072 16.8229C3.4692 17.2813 4.09715 17.5561 5.18708 17.7027C6.30038 17.8524 7.76794 17.8541 9.83366 17.8541H14.167C16.2327 17.8541 17.7003 17.8524 18.8136 17.7027C19.9035 17.5561 20.5315 17.2813 20.9899 16.8229C21.4484 16.3644 21.7232 15.7364 21.8698 14.6465C22.0194 13.5332 22.0212 12.0656 22.0212 9.99992C22.0212 7.9342 22.0194 6.46664 21.8698 5.35334C21.7232 4.26341 21.4484 3.63546 20.9899 3.17698C20.5315 2.7185 19.9035 2.4437 18.8136 2.29716C17.7003 2.14748 16.2327 2.14575 14.167 2.14575H9.83366C7.76794 2.14575 6.30038 2.14748 5.18708 2.29716Z" fill="#A8B1BD"/>
</svg>
