<svg width="32" height="32" viewBox="0 0 32 32" fill="none" xmlns="http://www.w3.org/2000/svg">
<g clip-path="url(#clip0_116_3968)">
<path d="M24 0H8C3.58172 0 0 3.58172 0 8V24C0 28.4183 3.58172 32 8 32H24C28.4183 32 32 28.4183 32 24V8C32 3.58172 28.4183 0 24 0Z" fill="#EBECFE"/>
<mask id="mask0_116_3968" style="mask-type:luminance" maskUnits="userSpaceOnUse" x="6" y="6" width="20" height="20">
<path d="M26 6H6V26H26V6Z" fill="white"/>
</mask>
<g mask="url(#mask0_116_3968)">
<path d="M12.6665 16.8335H14.7499" stroke="#3640F5" stroke-width="1.5" stroke-linecap="round"/>
<path d="M12.6665 13.5H18.0832" stroke="#3640F5" stroke-width="1.5" stroke-linecap="round"/>
<path d="M12.6665 20.1667H13.9165" stroke="#3640F5" stroke-width="1.5" stroke-linecap="round"/>
<path d="M22.5237 8.64306C21.5474 7.66675 19.976 7.66675 16.8333 7.66675H15.1667C12.024 7.66675 10.4526 7.66675 9.47631 8.64306C8.5 9.61937 8.5 11.1907 8.5 14.3334V17.6668C8.5 20.8095 8.5 22.3808 9.47631 23.3571C10.4526 24.3334 12.024 24.3334 15.1667 24.3334H16.8333C19.976 24.3334 21.5474 24.3334 22.5237 23.3571C23.3096 22.5712 23.4629 21.3997 23.4928 19.3334" stroke="#3640F5" stroke-width="1.5" stroke-linecap="round"/>
<path d="M18.5 16.0002L20.4167 18.0835L24.3333 11.8335" stroke="#3640F5" stroke-width="1.5" stroke-linecap="round" stroke-linejoin="round"/>
</g>
</g>
<defs>
<clipPath id="clip0_116_3968">
<rect width="32" height="32" fill="white"/>
</clipPath>
</defs>
</svg>
