<svg width="32" height="32" viewBox="0 0 32 32" fill="none" xmlns="http://www.w3.org/2000/svg">
<g clip-path="url(#clip0_116_3961)">
<path d="M24 0H8C3.58172 0 0 3.58172 0 8V24C0 28.4183 3.58172 32 8 32H24C28.4183 32 32 28.4183 32 24V8C32 3.58172 28.4183 0 24 0Z" fill="#EBECFE"/>
<mask id="mask0_116_3961" style="mask-type:luminance" maskUnits="userSpaceOnUse" x="6" y="6" width="20" height="20">
<path d="M26 6H6V26H26V6Z" fill="white"/>
</mask>
<g mask="url(#mask0_116_3961)">
<path fill-rule="evenodd" clip-rule="evenodd" d="M15.1197 7.04175H16.8803C18.4118 7.04174 19.6248 7.04173 20.5742 7.16936C21.5512 7.30072 22.342 7.57749 22.9656 8.20112C23.2097 8.4452 23.2097 8.84093 22.9656 9.085C22.7216 9.32908 22.3258 9.32908 22.0817 9.085C21.7291 8.73233 21.246 8.52094 20.4076 8.40822C19.5512 8.29308 18.4224 8.29175 16.8333 8.29175H15.1667C13.5777 8.29175 12.4488 8.29308 11.5924 8.40822C10.754 8.52094 10.2709 8.73233 9.91825 9.085C9.56558 9.43768 9.35419 9.92072 9.24147 10.7591C9.12633 11.6155 9.125 12.7444 9.125 14.3334V17.6668C9.125 19.2558 9.12633 20.3847 9.24147 21.2411C9.35419 22.0795 9.56558 22.5625 9.91825 22.9152C10.2709 23.2679 10.754 23.4793 11.5924 23.592C12.4488 23.7071 13.5776 23.7084 15.1667 23.7084H16.8333C18.4224 23.7084 19.5512 23.7071 20.4076 23.592C21.246 23.4793 21.7291 23.2679 22.0817 22.9152C22.6617 22.3352 22.8373 21.4341 22.8678 19.3244C22.8728 18.9793 23.1567 18.7035 23.5018 18.7085C23.8469 18.7135 24.1227 18.9973 24.1177 19.3425C24.0884 21.3654 23.9575 22.8072 22.9656 23.7991C22.342 24.4227 21.5512 24.6995 20.5742 24.8308C19.6248 24.9585 18.4118 24.9585 16.8803 24.9584H15.1197C13.5882 24.9585 12.3752 24.9585 11.4258 24.8308C10.4488 24.6995 9.65801 24.4227 9.03437 23.7991C8.41073 23.1754 8.13397 22.3846 8.00261 21.4076C7.87498 20.4583 7.87499 19.2453 7.875 17.7138V14.2864C7.87499 12.755 7.87498 11.5419 8.00261 10.5926C8.13397 9.61555 8.41073 8.82476 9.03437 8.20112C9.65801 7.57749 10.4488 7.30072 11.4258 7.16936C12.3752 7.04173 13.5882 7.04174 15.1197 7.04175ZM21.0943 11.8714C21.9782 10.9875 23.4114 10.9875 24.2954 11.8714C25.1793 12.7554 25.1793 14.1885 24.2954 15.0725L20.3326 19.0353C20.117 19.2509 19.9712 19.3968 19.8078 19.5242C19.6156 19.6741 19.4077 19.8026 19.1876 19.9075C19.0006 19.9966 18.8049 20.0618 18.5156 20.1582L16.7792 20.737C16.3959 20.8648 15.9732 20.765 15.6875 20.4793C15.4017 20.1935 15.302 19.7709 15.4298 19.3875L15.9969 17.6861C16.0008 17.6743 16.0047 17.6627 16.0085 17.6512C16.1049 17.3619 16.1701 17.1662 16.2593 16.9791C16.3641 16.7591 16.4927 16.5512 16.6426 16.359C16.77 16.1956 16.9159 16.0498 17.1315 15.8342C17.1401 15.8256 17.1488 15.8169 17.1576 15.8081L21.0943 11.8714ZM23.4115 12.7553C23.0157 12.3595 22.374 12.3595 21.9782 12.7553L21.8267 12.9068C21.8349 12.9347 21.8443 12.9644 21.8552 12.9955C21.9335 13.2215 22.0823 13.5203 22.3644 13.8024C22.6464 14.0845 22.9453 14.2332 23.1712 14.3116C23.2024 14.3224 23.2321 14.3319 23.26 14.3401L23.4115 14.1886C23.8073 13.7928 23.8073 13.1511 23.4115 12.7553ZM22.3054 15.2947C22.0405 15.1556 21.7544 14.9602 21.4805 14.6863C21.2066 14.4124 21.0112 14.1263 20.872 13.8614L18.0415 16.692C17.7906 16.9429 17.7025 17.0325 17.6282 17.1278C17.5341 17.2484 17.4535 17.3788 17.3877 17.5169C17.3357 17.626 17.295 17.7448 17.1827 18.0814L16.8492 19.0822L17.0846 19.3176L18.0854 18.984C18.422 18.8718 18.5408 18.8311 18.6499 18.7791C18.7879 18.7133 18.9184 18.6326 19.039 18.5386C19.1343 18.4642 19.2239 18.3762 19.4748 18.1253L22.3054 15.2947ZM12.0417 13.5001C12.0417 13.1549 12.3215 12.8751 12.6667 12.8751H18.0833C18.4285 12.8751 18.7083 13.1549 18.7083 13.5001C18.7083 13.8453 18.4285 14.1251 18.0833 14.1251H12.6667C12.3215 14.1251 12.0417 13.8453 12.0417 13.5001ZM12.0417 16.8334C12.0417 16.4883 12.3215 16.2084 12.6667 16.2084H14.75C15.0952 16.2084 15.375 16.4883 15.375 16.8334C15.375 17.1786 15.0952 17.4584 14.75 17.4584H12.6667C12.3215 17.4584 12.0417 17.1786 12.0417 16.8334ZM12.0417 20.1668C12.0417 19.8216 12.3215 19.5418 12.6667 19.5418H13.9167C14.2618 19.5418 14.5417 19.8216 14.5417 20.1668C14.5417 20.5119 14.2618 20.7918 13.9167 20.7918H12.6667C12.3215 20.7918 12.0417 20.5119 12.0417 20.1668Z" fill="#3640F5"/>
</g>
</g>
<defs>
<clipPath id="clip0_116_3961">
<rect width="32" height="32" fill="white"/>
</clipPath>
</defs>
</svg>
